# xmcd CD database file
# Generated: Sat Apr 10 20:16:51 2010 by WSPse's MP3c
#
# Track frame offsets:
#       150
#       13295
#       32139
#       49154
#       64390
#       88998
#       109966
#       123890
#       146380
#       164842
#       184161
#
# Disc length: 2677 seconds
#
# Revision: 0
# Processed by: cddbd v1.5.2PL0 Copyright (c) Steve Scherf et al.
# Submitted via: MP3c 0.31
#   WSPse mp3c-0.31 (NLS) - ENGLISH (Feb 18 2010) Default:MP3
#
DISCID=a50a730b
DTITLE=Lady Antebellum - Need You Now
DYEAR=2010
DGENRE=Country
TTITLE0=Need You Now
TTITLE1=Our Kind of Love
TTITLE2=American Honey
TTITLE3=Hello World
TTITLE4=Perfect Day
TTITLE5=Love This Pain
TTITLE6=When You Got a Good Thing
TTITLE7=Stars Tonight
TTITLE8=If I Knew Then
TTITLE9=Something 'Bout a Woman
TTITLE10=Ready to Love Again
EXTD=
EXTT0=
EXTT1=
EXTT2=
EXTT3=
EXTT4=
EXTT5=
EXTT6=
EXTT7=
EXTT8=
EXTT9=
EXTT10=
PLAYORDER=
